<?xml version="1.0" encoding="utf-8"?>
<!-- Generator: Adobe Illustrator 22.1.0, SVG Export Plug-In . SVG Version: 6.00 Build 0)  -->
<svg version="1.1" id="Ebene_1" xmlns="http://www.w3.org/2000/svg" xmlns:xlink="http://www.w3.org/1999/xlink" x="0px" y="0px"
	 width="136.063px" height="55.276px" viewBox="0 0 136.063 55.276" enable-background="new 0 0 136.063 55.276"
	 xml:space="preserve">
<metadata><?xpacket begin="﻿" id="W5M0MpCehiHzreSzNTczkc9d"?>
<x:xmpmeta xmlns:x="adobe:ns:meta/" x:xmptk="Adobe XMP Core 5.6-c143 79.161356, 2017/09/07-01:11:22        ">
   <rdf:RDF xmlns:rdf="http://www.w3.org/1999/02/22-rdf-syntax-ns#">
      <rdf:Description rdf:about=""/>
   </rdf:RDF>
</x:xmpmeta>
                                                                                                    
                                                                                                    
                                                                                                    
                                                                                                    
                                                                                                    
                                                                                                    
                                                                                                    
                                                                                                    
                                                                                                    
                                                                                                    
                                                                                                    
                                                                                                    
                                                                                                    
                                                                                                    
                                                                                                    
                                                                                                    
                                                                                                    
                                                                                                    
                                                                                                    
                                                                                                    
                           
<?xpacket end="w"?></metadata>
<rect fill="#FFFFFF" width="136.063" height="55.276"/>
<polygon fill="#007987" points="57.635,19.909 56.675,19.909 52.562,13.592 52.539,13.592 52.539,19.909 51.507,19.909 
	51.507,11.731 52.468,11.731 56.58,18.012 56.604,18.012 56.604,11.731 57.635,11.731 57.635,19.909 "/>
<path fill="#007987" d="M64.897,19.909l-0.901-2.619h-2.927l-0.9,2.619h-1.055l3.058-8.178h0.818l3.058,8.178H64.897L64.897,19.909z
	 M62.562,13.082h-0.024l-1.197,3.425h2.394L62.562,13.082L62.562,13.082z"/>
<polygon fill="#007987" points="72.113,12.584 69.577,12.584 69.577,19.909 68.545,19.909 68.545,12.584 66.009,12.584 
	66.009,11.731 72.184,11.731 72.113,12.584 "/>
<polygon fill="#007987" points="74.208,12.478 73.212,12.478 73.212,11.731 76.235,11.731 76.235,12.478 75.239,12.478 
	75.239,19.162 76.27,19.162 76.27,19.909 73.177,19.909 73.177,19.162 74.208,19.162 74.208,12.478 "/>
<path fill="#007987" d="M81.2,20.051c-2.11,0-3.556-1.458-3.556-4.231c0-2.774,1.517-4.232,3.627-4.232
	c2.098,0,3.544,1.458,3.544,4.232C84.815,18.593,83.297,20.051,81.2,20.051L81.2,20.051z M81.235,12.478
	c-1.541,0-2.489,1.149-2.489,3.342c0,2.157,0.948,3.342,2.489,3.342c1.529,0,2.477-1.185,2.477-3.342
	C83.712,13.627,82.764,12.478,81.235,12.478L81.235,12.478z"/>
<polygon fill="#007987" points="92.729,19.909 91.769,19.909 87.656,13.592 87.632,13.592 87.632,19.909 86.601,19.909 
	86.601,11.731 87.561,11.731 91.674,18.012 91.697,18.012 91.697,11.731 92.729,11.731 92.729,19.909 "/>
<path fill="#007987" d="M99.991,19.909l-0.901-2.619h-2.927l-0.901,2.619h-1.055l3.058-8.178h0.818l3.058,8.178H99.991
	L99.991,19.909z M97.656,13.082h-0.024l-1.197,3.425h2.394L97.656,13.082L97.656,13.082z"/>
<polygon fill="#007987" points="103.65,11.731 103.65,19.055 107.111,19.055 107.04,19.909 102.619,19.909 102.619,11.731 
	103.65,11.731 "/>
<polygon fill="#007987" points="112.905,12.584 109.48,12.584 109.48,15.358 112.62,15.358 112.62,16.211 109.48,16.211 
	109.48,19.055 113.225,19.055 113.154,19.909 108.448,19.909 108.448,11.731 112.976,11.731 112.905,12.584 "/>
<path fill="#007987" d="M57.374,42.928c-0.261,0.237-1.008,0.794-2.56,0.794c-2.193,0-3.84-1.126-3.84-4.267
	c0-2.892,2.05-4.196,4.112-4.196c1.47,0,2.181,0.628,2.395,0.806l-0.557,1.197c-0.214-0.19-0.747-0.664-1.742-0.664
	c-1.375,0-2.536,0.854-2.536,2.856c0,2.074,0.889,2.927,2.394,2.927c0.32,0,0.604-0.035,0.853-0.094v-1.79h-1.41v-1.28h2.892V42.928
	L57.374,42.928z"/>
<polygon fill="#007987" points="63.961,36.705 60.892,36.705 60.892,38.803 63.736,38.803 63.736,40.107 60.892,40.107 
	60.892,42.276 64.352,42.276 64.257,43.58 59.303,43.58 59.303,35.402 64.056,35.402 63.961,36.705 "/>
<path fill="#007987" d="M71.888,42.928c-0.261,0.237-1.008,0.794-2.56,0.794c-2.193,0-3.84-1.126-3.84-4.267
	c0-2.892,2.05-4.196,4.112-4.196c1.47,0,2.181,0.628,2.395,0.806l-0.557,1.197c-0.214-0.19-0.747-0.664-1.742-0.664
	c-1.375,0-2.536,0.854-2.536,2.856c0,2.074,0.889,2.927,2.394,2.927c0.32,0,0.604-0.035,0.853-0.094v-1.79h-1.41v-1.28h2.892V42.928
	L71.888,42.928z"/>
<polygon fill="#007987" points="78.475,36.705 75.405,36.705 75.405,38.803 78.249,38.803 78.249,40.107 75.405,40.107 
	75.405,42.276 78.866,42.276 78.771,43.58 73.817,43.58 73.817,35.402 78.569,35.402 78.475,36.705 "/>
<polygon fill="#007987" points="86.816,43.58 85.453,43.58 82.087,38.471 82.063,38.471 82.063,43.58 80.475,43.58 80.475,35.402 
	81.838,35.402 85.204,40.475 85.228,40.475 85.228,35.402 86.816,35.402 86.816,43.58 "/>
<polygon fill="#007987" points="95.097,39.384 98.06,43.58 96.14,43.58 93.781,40.107 93.236,40.107 93.236,43.58 91.648,43.58 
	91.648,35.402 93.236,35.402 93.236,38.803 93.828,38.803 96.128,35.402 97.894,35.402 95.097,39.384 "/>
<path fill="#007987" d="M103.415,43.58l-1.742-2.987c-0.154,0.012-0.332,0.012-0.498,0.012h-0.296v2.975H99.29v-8.178h1.944
	c2.3,0,3.366,0.901,3.366,2.548c0,1.007-0.474,1.813-1.41,2.263l2.098,3.366H103.415L103.415,43.58z M101.233,36.705h-0.356v2.643
	h0.296c1.197,0,1.766-0.509,1.766-1.386C102.941,37.12,102.395,36.705,101.233,36.705L101.233,36.705z"/>
<polygon fill="#007987" points="111.305,36.705 108.235,36.705 108.235,38.803 111.08,38.803 111.08,40.107 108.235,40.107 
	108.235,42.276 111.697,42.276 111.601,43.58 106.647,43.58 106.647,35.402 111.4,35.402 111.305,36.705 "/>
<path fill="#007987" d="M117.004,39.361v0.023c0.77,0.154,1.695,0.759,1.695,1.897c0,1.351-1.007,2.299-3.355,2.299h-2.039v-8.178
	h1.932c2.394,0,3.235,0.83,3.235,2.157C118.473,38.732,117.703,39.147,117.004,39.361L117.004,39.361z M115.238,36.658h-0.344v2.193
	h0.332c1.126,0,1.648-0.439,1.648-1.173C116.873,37.049,116.411,36.658,115.238,36.658L115.238,36.658z M115.416,40.083h-0.522V42.3
	h0.45c1.209,0,1.719-0.391,1.719-1.126C117.063,40.475,116.482,40.083,115.416,40.083L115.416,40.083z"/>
<path fill="#007987" d="M124.219,37.156c-0.189-0.154-0.675-0.569-1.458-0.569c-0.759,0-1.102,0.332-1.102,0.735
	c0,0.509,0.237,0.759,0.901,1.162l0.889,0.545c1.114,0.688,1.6,1.339,1.6,2.382c0,1.137-0.806,2.311-2.785,2.311
	c-1.316,0-2.003-0.569-2.276-0.794l0.522-1.328c0.272,0.273,0.877,0.77,1.73,0.77c0.842,0,1.233-0.356,1.233-0.759
	c0-0.545-0.237-0.829-0.865-1.244l-0.889-0.592c-1.126-0.747-1.612-1.328-1.612-2.418c0-1.162,0.972-2.098,2.607-2.098
	c1.15,0,1.742,0.451,2.003,0.64L124.219,37.156L124.219,37.156z"/>
<path fill="#007987" d="M51.507,31.851v-8.178h1.683c3.082,0,4.48,1.114,4.48,3.899c0,2.951-1.707,4.279-4.622,4.279H51.507
	L51.507,31.851z M52.539,24.562v6.4h0.51c2.276,0,3.52-0.96,3.52-3.39c0-2.24-1.185-3.011-3.378-3.011H52.539L52.539,24.562z"/>
<polygon fill="#007987" points="63.689,24.526 60.263,24.526 60.263,27.3 63.404,27.3 63.404,28.153 60.263,28.153 60.263,30.997 
	64.009,30.997 63.937,31.851 59.233,31.851 59.233,23.673 63.76,23.673 63.689,24.526 "/>
<polygon fill="#007987" points="68.463,27.667 71.757,31.851 70.454,31.851 67.633,28.153 66.886,28.153 66.886,31.851 
	65.855,31.851 65.855,23.673 66.886,23.673 66.886,27.3 67.633,27.3 70.359,23.673 71.52,23.673 68.463,27.667 "/>
<path fill="#007987" d="M78.51,31.851l-0.901-2.619h-2.927l-0.901,2.619h-1.055l3.058-8.178h0.818l3.058,8.178H78.51L78.51,31.851z
	 M76.176,25.024h-0.024l-1.197,3.425h2.394L76.176,25.024L76.176,25.024z"/>
<path fill="#007987" d="M81.139,31.851v-8.178h1.683c3.082,0,4.48,1.114,4.48,3.899c0,2.951-1.707,4.279-4.622,4.279H81.139
	L81.139,31.851z M82.17,24.562v6.4h0.51c2.276,0,3.52-0.96,3.52-3.39c0-2.24-1.185-3.011-3.378-3.011H82.17L82.17,24.562z"/>
<polygon fill="#007987" points="93.557,24.526 90.132,24.526 90.132,27.3 93.273,27.3 93.273,28.153 90.132,28.153 90.132,30.997 
	93.877,30.997 93.806,31.851 89.101,31.851 89.101,23.673 93.628,23.673 93.557,24.526 "/>
<polygon fill="#C7D300" points="34.13,11.731 22.667,27.626 34.2,27.626 45.762,11.731 34.13,11.731 "/>
<polygon fill="#007987" points="11.176,11.731 22.675,27.634 34.2,27.626 22.745,11.731 11.176,11.731 "/>
<polygon fill="#9FC9CF" points="45.81,43.579 34.2,27.626 22.675,27.634 34.178,43.579 45.81,43.579 "/>
<polygon fill="#EAEDB1" points="22.697,43.579 34.2,27.626 22.675,27.634 11.128,43.579 22.697,43.579 "/>
</svg>
