<?xml version="1.0" encoding="utf-8"?>
<!-- Generator: Adobe Illustrator 16.0.4, SVG Export Plug-In . SVG Version: 6.00 Build 0)  -->
<!DOCTYPE svg PUBLIC "-//W3C//DTD SVG 1.1//EN" "http://www.w3.org/Graphics/SVG/1.1/DTD/svg11.dtd">
<svg version="1.1" id="keyways_logo" xmlns="http://www.w3.org/2000/svg" xmlns:xlink="http://www.w3.org/1999/xlink" x="0px"
	 y="0px" width="100px" height="18px" viewBox="0 0 100 18" enable-background="new 0 0 100 18" xml:space="preserve">
<path fill="#0096C8" d="M29.679,14.87L26.08,9.928l-1.343,1.394v3.549h-2.555V3.261h2.555v5.075l4.709-5.075h3.085l-4.727,4.925
	l4.942,6.684H29.679z M33.466,14.87V3.261h8.757v2.272h-6.219v2.354h5.473v2.272h-5.473v2.438h6.302v2.272H33.466z M49.592,10.243
	v4.627h-2.554v-4.578l-4.461-7.031h2.985l2.77,4.66l2.818-4.66h2.903L49.592,10.243z"/>
<path fill="#46505A" d="M62.086,3.228h1.079l3.182,9.702l3.319-9.668h1.375l-4.146,11.692h-1.112L62.6,5.533l-3.201,9.42h-1.095
	L54.159,3.261h1.426l3.317,9.668L62.086,3.228z M81.912,14.87h-1.408l-1.359-3.068h-6.32l-1.376,3.068h-1.345l5.29-11.692h1.228
	L81.912,14.87z M75.992,4.704l-2.654,5.92h5.29L75.992,4.704z M86.528,14.87h-1.326v-4.594l-4.828-7.015h1.593l3.914,5.805
	l3.948-5.805h1.524l-4.825,6.998V14.87z M96.219,8.435C98.808,8.999,100,9.944,100,11.736c0,2.006-1.659,3.3-3.964,3.3
	c-1.84,0-3.349-0.614-4.741-1.857l0.81-0.962c1.213,1.094,2.372,1.642,3.982,1.642c1.558,0,2.587-0.813,2.587-1.99
	c0-1.094-0.582-1.708-3.019-2.222c-2.672-0.581-3.897-1.443-3.897-3.367c0-1.858,1.608-3.184,3.815-3.184
	c1.69,0,2.901,0.48,4.078,1.425l-0.764,1.012c-1.076-0.879-2.155-1.261-3.348-1.261c-1.511,0-2.472,0.829-2.472,1.891
	C93.068,7.274,93.664,7.888,96.219,8.435z"/>
<path fill="#009CD1" d="M16.215,7.646c-0.088-0.025-0.189-0.04-0.306-0.04h-3.562c-0.56-1.436-1.948-2.457-3.581-2.457
	C6.639,5.149,4.915,6.873,4.915,9c0,2.126,1.724,3.851,3.851,3.851c1.633,0,3.021-1.021,3.581-2.457h3.562
	c0,0,0.094-0.004,0.219-0.032c0.716-0.044,1.286-0.634,1.286-1.362C17.414,8.303,16.89,7.732,16.215,7.646"/>
<path fill="#FFF000" d="M7.491,10.371c0.757,0,1.372-0.613,1.372-1.37c0-0.758-0.614-1.372-1.372-1.372S6.119,8.242,6.119,9
	C6.119,9.757,6.733,10.371,7.491,10.371"/>
<path fill="#46505A" d="M8.968,18C4.023,18,0,13.963,0,9c0-4.963,4.023-9,8.968-9c2.984,0,5.764,1.482,7.437,3.966
	c0.39,0.583,0.237,1.375-0.342,1.767c-0.562,0.382-1.385,0.22-1.762-0.341c-1.2-1.783-3.193-2.847-5.333-2.847
	c-3.546,0-6.43,2.896-6.43,6.455c0,3.559,2.884,6.454,6.43,6.454c2.146,0,4.142-1.069,5.342-2.859
	c0.375-0.563,1.197-0.726,1.761-0.347c0.581,0.392,0.735,1.184,0.345,1.767C14.745,16.51,11.96,18,8.968,18z"/>
</svg>
